# xmcd
# 
# Track frame offsets:
#     150
#     27503
#     48189
#     71118
#     90901
#     118947
#     138555
#     164959
#     187258
#     212995
# 
# Disc length: 3168
# 
# Revision: 3
# Processed by: cddbd v1.5.2PL0 Copyright (c) Steve Scherf et al.
# Submitted via: fre:ac v1.0.31
# 
DISCID=9f0c5e0a
DTITLE=Michael Franks - The Music In My Head
DYEAR=2018
DGENRE=Jazz
TTITLE0=As Long As We're Both Together
TTITLE1=Suddenly Sci-Fi
TTITLE2=The Idea Of A Tree
TTITLE3=Bluebird Blue
TTITLE4=To Spend The Day With You
TTITLE5=Bebop Headshop
TTITLE6=Where You Hid The Truth
TTITLE7=The Music In My Head
TTITLE8=Candleglow
TTITLE9=Waterfall
EXTD=YEAR: 2018
EXTT0=
EXTT1=
EXTT2=
EXTT3=
EXTT4=
EXTT5=
EXTT6=
EXTT7=
EXTT8=
EXTT9=
PLAYORDER=
